# xmcd
#
# Track frame offsets:
#	150
#	11025
#	25761
#	44235
#	56603
#	67504
#	83063
#	96037
#	107088
#	120894
#	134809
#	146223
#	156485
#	169687
#	180794
#	193689
#	205591
#	218791
#	228848
#	247198
#	257566
#	272203
#	287880
#	303521
#	316623
#
# Disc length: 4405 seconds
#
# Revision: 0
# Processed by: cddbd v1.4PL0 Copyright (c) Steve Scherf et al.
# Submitted via: audiograbber 1.82.02
#
DISCID=62113319
DTITLE=Eddie Low - In Dreams
DYEAR=1900
DGENRE=Pop
TTITLE0=Lana
TTITLE1=Crawling Back
TTITLE2=Medley - Ooby Dooby - Candy Man - Let The Good Times Roll
TTITLE3=It's Over
TTITLE4=Only The Lonely
TTITLE5=Crying
TTITLE6=Yo Te Amo Maria
TTITLE7=Leah
TTITLE8=Penny Arcade
TTITLE9=Too Soon To Know
TTITLE10=Love Hurts
TTITLE11=Beautiful Dreamer
TTITLE12=Say You're My Girl
TTITLE13=Blue Bayou
TTITLE14=Communication Breakdown
TTITLE15=Pretty Paper
TTITLE16=Mean Women Blues
TTITLE17=Running Scared
TTITLE18=She's a Mystery to Me
TTITLE19=The Crowd
TTITLE20=You Got It
TTITLE21=California Blue
TTITLE22=Dream Baby
TTITLE23=In Dreams
TTITLE24=Pretty Women
EXTD=
EXTT0=
EXTT1=
EXTT2=
EXTT3=
EXTT4=
EXTT5=
EXTT6=
EXTT7=
EXTT8=
EXTT9=
EXTT10=
EXTT11=
EXTT12=
EXTT13=
EXTT14=
EXTT15=
EXTT16=
EXTT17=
EXTT18=
EXTT19=
EXTT20=
EXTT21=
EXTT22=
EXTT23=
EXTT24=
PLAYORDER=
